<svg xmlns="http://www.w3.org/2000/svg" width="1920" height="1280" viewBox="0 0 1920 1280">
<defs>
<filter id="shadow" x="-30%" y="-30%" width="160%" height="160%">
  <feDropShadow dx="0" dy="5" stdDeviation="4" flood-color="#000000" flood-opacity="0.28"/>
</filter>
<filter id="softGlow" x="-50%" y="-50%" width="200%" height="200%">
  <feGaussianBlur stdDeviation="4" result="blur"/>
  <feMerge><feMergeNode in="blur"/><feMergeNode in="SourceGraphic"/></feMerge>
</filter>

<linearGradient id="sky" x1="0" y1="0" x2="0" y2="1"><stop offset="0%" stop-color="#5bbdff"/><stop offset="60%" stop-color="#cfefff"/><stop offset="100%" stop-color="#78de5a"/></linearGradient>
<linearGradient id="seat" x1="0" y1="0" x2="1" y2="0"><stop offset="0%" stop-color="#8852d8"/><stop offset="50%" stop-color="#ff7ab4"/><stop offset="100%" stop-color="#58cfff"/></linearGradient>

</defs>


<rect width="1920" height="1280" fill="url(#sky)"/>
<ellipse cx="260" cy="140" rx="120" ry="42" fill="#fff" opacity=".9"/><ellipse cx="350" cy="130" rx="95" ry="38" fill="#fff" opacity=".9"/><ellipse cx="1380" cy="120" rx="130" ry="45" fill="#fff" opacity=".9"/><ellipse cx="1490" cy="145" rx="100" ry="35" fill="#fff" opacity=".9"/><ellipse cx="910" cy="210" rx="110" ry="40" fill="#fff" opacity=".9"/><ellipse cx="1010" cy="200" rx="80" ry="34" fill="#fff" opacity=".9"/>
<ellipse cx="152" cy="220" rx="22" ry="30" fill="#ff7ab4" opacity=".9"/><path d="M152 250 C132 300,172 340,152 390" fill="none" stroke="#fff" stroke-width="2" opacity=".6"/><ellipse cx="1700" cy="220" rx="22" ry="30" fill="#ffd24a" opacity=".9"/><path d="M1700 250 C1680 300,1720 340,1700 390" fill="none" stroke="#fff" stroke-width="2" opacity=".6"/><ellipse cx="980" cy="115" rx="22" ry="30" fill="#74d756" opacity=".9"/><path d="M980 145 C960 195,1000 235,980 285" fill="none" stroke="#fff" stroke-width="2" opacity=".6"/><ellipse cx="760" cy="160" rx="22" ry="30" fill="#b86ce8" opacity=".9"/><path d="M760 190 C740 240,780 280,760 330" fill="none" stroke="#fff" stroke-width="2" opacity=".6"/>
<path d="M0 390 C420 330 620 370 960 345 C1300 370 1500 330 1920 395 L1920 690 L0 690Z" fill="url(#seat)" opacity=".95"/>
<path d="M0 445 H1920 M0 505 H1920 M0 565 H1920 M0 625 H1920" stroke="#ffffff" stroke-width="8" opacity=".32"/>
<circle cx="60" cy="430" r="20" fill="#4cb1ff" stroke="#2b1650" stroke-width="3" opacity=".92"/><circle cx="54" cy="426" r="3" fill="#fff"/><circle cx="66" cy="426" r="3" fill="#fff"/><circle cx="112" cy="430" r="20" fill="#ff6b7a" stroke="#2b1650" stroke-width="3" opacity=".92"/><circle cx="106" cy="426" r="3" fill="#fff"/><circle cx="118" cy="426" r="3" fill="#fff"/><circle cx="164" cy="430" r="20" fill="#74d756" stroke="#2b1650" stroke-width="3" opacity=".92"/><circle cx="158" cy="426" r="3" fill="#fff"/><circle cx="170" cy="426" r="3" fill="#fff"/><circle cx="216" cy="430" r="20" fill="#ffd24a" stroke="#2b1650" stroke-width="3" opacity=".92"/><circle cx="210" cy="426" r="3" fill="#fff"/><circle cx="222" cy="426" r="3" fill="#fff"/><circle cx="268" cy="430" r="20" fill="#b86ce8" stroke="#2b1650" stroke-width="3" opacity=".92"/><circle cx="262" cy="426" r="3" fill="#fff"/><circle cx="274" cy="426" r="3" fill="#fff"/><circle cx="320" cy="430" r="20" fill="#f6f6f6" stroke="#2b1650" stroke-width="3" opacity=".92"/><circle cx="314" cy="426" r="3" fill="#fff"/><circle cx="326" cy="426" r="3" fill="#fff"/><circle cx="372" cy="430" r="20" fill="#4cb1ff" stroke="#2b1650" stroke-width="3" opacity=".92"/><circle cx="366" cy="426" r="3" fill="#fff"/><circle cx="378" cy="426" r="3" fill="#fff"/><circle cx="424" cy="430" r="20" fill="#ff6b7a" stroke="#2b1650" stroke-width="3" opacity=".92"/><circle cx="418" cy="426" r="3" fill="#fff"/><circle cx="430" cy="426" r="3" fill="#fff"/><circle cx="476" cy="430" r="20" fill="#74d756" stroke="#2b1650" stroke-width="3" opacity=".92"/><circle cx="470" cy="426" r="3" fill="#fff"/><circle cx="482" cy="426" r="3" fill="#fff"/><circle cx="528" cy="430" r="20" fill="#ffd24a" stroke="#2b1650" stroke-width="3" opacity=".92"/><circle cx="522" cy="426" r="3" fill="#fff"/><circle cx="534" cy="426" r="3" fill="#fff"/><circle cx="580" cy="430" r="20" fill="#b86ce8" stroke="#2b1650" stroke-width="3" opacity=".92"/><circle cx="574" cy="426" r="3" fill="#fff"/><circle cx="586" cy="426" r="3" fill="#fff"/><circle cx="632" cy="430" r="20" fill="#f6f6f6" stroke="#2b1650" stroke-width="3" opacity=".92"/><circle cx="626" cy="426" r="3" fill="#fff"/><circle cx="638" cy="426" r="3" fill="#fff"/><circle cx="684" cy="430" r="20" fill="#4cb1ff" stroke="#2b1650" stroke-width="3" opacity=".92"/><circle cx="678" cy="426" r="3" fill="#fff"/><circle cx="690" cy="426" r="3" fill="#fff"/><circle cx="736" cy="430" r="20" fill="#ff6b7a" stroke="#2b1650" stroke-width="3" opacity=".92"/><circle cx="730" cy="426" r="3" fill="#fff"/><circle cx="742" cy="426" r="3" fill="#fff"/><circle cx="788" cy="430" r="20" fill="#74d756" stroke="#2b1650" stroke-width="3" opacity=".92"/><circle cx="782" cy="426" r="3" fill="#fff"/><circle cx="794" cy="426" r="3" fill="#fff"/><circle cx="840" cy="430" r="20" fill="#ffd24a" stroke="#2b1650" stroke-width="3" opacity=".92"/><circle cx="834" cy="426" r="3" fill="#fff"/><circle cx="846" cy="426" r="3" fill="#fff"/><circle cx="892" cy="430" r="20" fill="#b86ce8" stroke="#2b1650" stroke-width="3" opacity=".92"/><circle cx="886" cy="426" r="3" fill="#fff"/><circle cx="898" cy="426" r="3" fill="#fff"/><circle cx="944" cy="430" r="20" fill="#f6f6f6" stroke="#2b1650" stroke-width="3" opacity=".92"/><circle cx="938" cy="426" r="3" fill="#fff"/><circle cx="950" cy="426" r="3" fill="#fff"/><circle cx="996" cy="430" r="20" fill="#4cb1ff" stroke="#2b1650" stroke-width="3" opacity=".92"/><circle cx="990" cy="426" r="3" fill="#fff"/><circle cx="1002" cy="426" r="3" fill="#fff"/><circle cx="1048" cy="430" r="20" fill="#ff6b7a" stroke="#2b1650" stroke-width="3" opacity=".92"/><circle cx="1042" cy="426" r="3" fill="#fff"/><circle cx="1054" cy="426" r="3" fill="#fff"/><circle cx="1100" cy="430" r="20" fill="#74d756" stroke="#2b1650" stroke-width="3" opacity=".92"/><circle cx="1094" cy="426" r="3" fill="#fff"/><circle cx="1106" cy="426" r="3" fill="#fff"/><circle cx="1152" cy="430" r="20" fill="#ffd24a" stroke="#2b1650" stroke-width="3" opacity=".92"/><circle cx="1146" cy="426" r="3" fill="#fff"/><circle cx="1158" cy="426" r="3" fill="#fff"/><circle cx="1204" cy="430" r="20" fill="#b86ce8" stroke="#2b1650" stroke-width="3" opacity=".92"/><circle cx="1198" cy="426" r="3" fill="#fff"/><circle cx="1210" cy="426" r="3" fill="#fff"/><circle cx="1256" cy="430" r="20" fill="#f6f6f6" stroke="#2b1650" stroke-width="3" opacity=".92"/><circle cx="1250" cy="426" r="3" fill="#fff"/><circle cx="1262" cy="426" r="3" fill="#fff"/><circle cx="1308" cy="430" r="20" fill="#4cb1ff" stroke="#2b1650" stroke-width="3" opacity=".92"/><circle cx="1302" cy="426" r="3" fill="#fff"/><circle cx="1314" cy="426" r="3" fill="#fff"/><circle cx="1360" cy="430" r="20" fill="#ff6b7a" stroke="#2b1650" stroke-width="3" opacity=".92"/><circle cx="1354" cy="426" r="3" fill="#fff"/><circle cx="1366" cy="426" r="3" fill="#fff"/><circle cx="1412" cy="430" r="20" fill="#74d756" stroke="#2b1650" stroke-width="3" opacity=".92"/><circle cx="1406" cy="426" r="3" fill="#fff"/><circle cx="1418" cy="426" r="3" fill="#fff"/><circle cx="1464" cy="430" r="20" fill="#ffd24a" stroke="#2b1650" stroke-width="3" opacity=".92"/><circle cx="1458" cy="426" r="3" fill="#fff"/><circle cx="1470" cy="426" r="3" fill="#fff"/><circle cx="1516" cy="430" r="20" fill="#b86ce8" stroke="#2b1650" stroke-width="3" opacity=".92"/><circle cx="1510" cy="426" r="3" fill="#fff"/><circle cx="1522" cy="426" r="3" fill="#fff"/><circle cx="1568" cy="430" r="20" fill="#f6f6f6" stroke="#2b1650" stroke-width="3" opacity=".92"/><circle cx="1562" cy="426" r="3" fill="#fff"/><circle cx="1574" cy="426" r="3" fill="#fff"/><circle cx="1620" cy="430" r="20" fill="#4cb1ff" stroke="#2b1650" stroke-width="3" opacity=".92"/><circle cx="1614" cy="426" r="3" fill="#fff"/><circle cx="1626" cy="426" r="3" fill="#fff"/><circle cx="1672" cy="430" r="20" fill="#ff6b7a" stroke="#2b1650" stroke-width="3" opacity=".92"/><circle cx="1666" cy="426" r="3" fill="#fff"/><circle cx="1678" cy="426" r="3" fill="#fff"/><circle cx="1724" cy="430" r="20" fill="#74d756" stroke="#2b1650" stroke-width="3" opacity=".92"/><circle cx="1718" cy="426" r="3" fill="#fff"/><circle cx="1730" cy="426" r="3" fill="#fff"/><circle cx="1776" cy="430" r="20" fill="#ffd24a" stroke="#2b1650" stroke-width="3" opacity=".92"/><circle cx="1770" cy="426" r="3" fill="#fff"/><circle cx="1782" cy="426" r="3" fill="#fff"/><circle cx="1828" cy="430" r="20" fill="#b86ce8" stroke="#2b1650" stroke-width="3" opacity=".92"/><circle cx="1822" cy="426" r="3" fill="#fff"/><circle cx="1834" cy="426" r="3" fill="#fff"/><circle cx="60" cy="485" r="20" fill="#ff6b7a" stroke="#2b1650" stroke-width="3" opacity=".92"/><circle cx="54" cy="481" r="3" fill="#fff"/><circle cx="66" cy="481" r="3" fill="#fff"/><circle cx="112" cy="485" r="20" fill="#74d756" stroke="#2b1650" stroke-width="3" opacity=".92"/><circle cx="106" cy="481" r="3" fill="#fff"/><circle cx="118" cy="481" r="3" fill="#fff"/><circle cx="164" cy="485" r="20" fill="#ffd24a" stroke="#2b1650" stroke-width="3" opacity=".92"/><circle cx="158" cy="481" r="3" fill="#fff"/><circle cx="170" cy="481" r="3" fill="#fff"/><circle cx="216" cy="485" r="20" fill="#b86ce8" stroke="#2b1650" stroke-width="3" opacity=".92"/><circle cx="210" cy="481" r="3" fill="#fff"/><circle cx="222" cy="481" r="3" fill="#fff"/><circle cx="268" cy="485" r="20" fill="#f6f6f6" stroke="#2b1650" stroke-width="3" opacity=".92"/><circle cx="262" cy="481" r="3" fill="#fff"/><circle cx="274" cy="481" r="3" fill="#fff"/><circle cx="320" cy="485" r="20" fill="#4cb1ff" stroke="#2b1650" stroke-width="3" opacity=".92"/><circle cx="314" cy="481" r="3" fill="#fff"/><circle cx="326" cy="481" r="3" fill="#fff"/><circle cx="372" cy="485" r="20" fill="#ff6b7a" stroke="#2b1650" stroke-width="3" opacity=".92"/><circle cx="366" cy="481" r="3" fill="#fff"/><circle cx="378" cy="481" r="3" fill="#fff"/><circle cx="424" cy="485" r="20" fill="#74d756" stroke="#2b1650" stroke-width="3" opacity=".92"/><circle cx="418" cy="481" r="3" fill="#fff"/><circle cx="430" cy="481" r="3" fill="#fff"/><circle cx="476" cy="485" r="20" fill="#ffd24a" stroke="#2b1650" stroke-width="3" opacity=".92"/><circle cx="470" cy="481" r="3" fill="#fff"/><circle cx="482" cy="481" r="3" fill="#fff"/><circle cx="528" cy="485" r="20" fill="#b86ce8" stroke="#2b1650" stroke-width="3" opacity=".92"/><circle cx="522" cy="481" r="3" fill="#fff"/><circle cx="534" cy="481" r="3" fill="#fff"/><circle cx="580" cy="485" r="20" fill="#f6f6f6" stroke="#2b1650" stroke-width="3" opacity=".92"/><circle cx="574" cy="481" r="3" fill="#fff"/><circle cx="586" cy="481" r="3" fill="#fff"/><circle cx="632" cy="485" r="20" fill="#4cb1ff" stroke="#2b1650" stroke-width="3" opacity=".92"/><circle cx="626" cy="481" r="3" fill="#fff"/><circle cx="638" cy="481" r="3" fill="#fff"/><circle cx="684" cy="485" r="20" fill="#ff6b7a" stroke="#2b1650" stroke-width="3" opacity=".92"/><circle cx="678" cy="481" r="3" fill="#fff"/><circle cx="690" cy="481" r="3" fill="#fff"/><circle cx="736" cy="485" r="20" fill="#74d756" stroke="#2b1650" stroke-width="3" opacity=".92"/><circle cx="730" cy="481" r="3" fill="#fff"/><circle cx="742" cy="481" r="3" fill="#fff"/><circle cx="788" cy="485" r="20" fill="#ffd24a" stroke="#2b1650" stroke-width="3" opacity=".92"/><circle cx="782" cy="481" r="3" fill="#fff"/><circle cx="794" cy="481" r="3" fill="#fff"/><circle cx="840" cy="485" r="20" fill="#b86ce8" stroke="#2b1650" stroke-width="3" opacity=".92"/><circle cx="834" cy="481" r="3" fill="#fff"/><circle cx="846" cy="481" r="3" fill="#fff"/><circle cx="892" cy="485" r="20" fill="#f6f6f6" stroke="#2b1650" stroke-width="3" opacity=".92"/><circle cx="886" cy="481" r="3" fill="#fff"/><circle cx="898" cy="481" r="3" fill="#fff"/><circle cx="944" cy="485" r="20" fill="#4cb1ff" stroke="#2b1650" stroke-width="3" opacity=".92"/><circle cx="938" cy="481" r="3" fill="#fff"/><circle cx="950" cy="481" r="3" fill="#fff"/><circle cx="996" cy="485" r="20" fill="#ff6b7a" stroke="#2b1650" stroke-width="3" opacity=".92"/><circle cx="990" cy="481" r="3" fill="#fff"/><circle cx="1002" cy="481" r="3" fill="#fff"/><circle cx="1048" cy="485" r="20" fill="#74d756" stroke="#2b1650" stroke-width="3" opacity=".92"/><circle cx="1042" cy="481" r="3" fill="#fff"/><circle cx="1054" cy="481" r="3" fill="#fff"/><circle cx="1100" cy="485" r="20" fill="#ffd24a" stroke="#2b1650" stroke-width="3" opacity=".92"/><circle cx="1094" cy="481" r="3" fill="#fff"/><circle cx="1106" cy="481" r="3" fill="#fff"/><circle cx="1152" cy="485" r="20" fill="#b86ce8" stroke="#2b1650" stroke-width="3" opacity=".92"/><circle cx="1146" cy="481" r="3" fill="#fff"/><circle cx="1158" cy="481" r="3" fill="#fff"/><circle cx="1204" cy="485" r="20" fill="#f6f6f6" stroke="#2b1650" stroke-width="3" opacity=".92"/><circle cx="1198" cy="481" r="3" fill="#fff"/><circle cx="1210" cy="481" r="3" fill="#fff"/><circle cx="1256" cy="485" r="20" fill="#4cb1ff" stroke="#2b1650" stroke-width="3" opacity=".92"/><circle cx="1250" cy="481" r="3" fill="#fff"/><circle cx="1262" cy="481" r="3" fill="#fff"/><circle cx="1308" cy="485" r="20" fill="#ff6b7a" stroke="#2b1650" stroke-width="3" opacity=".92"/><circle cx="1302" cy="481" r="3" fill="#fff"/><circle cx="1314" cy="481" r="3" fill="#fff"/><circle cx="1360" cy="485" r="20" fill="#74d756" stroke="#2b1650" stroke-width="3" opacity=".92"/><circle cx="1354" cy="481" r="3" fill="#fff"/><circle cx="1366" cy="481" r="3" fill="#fff"/><circle cx="1412" cy="485" r="20" fill="#ffd24a" stroke="#2b1650" stroke-width="3" opacity=".92"/><circle cx="1406" cy="481" r="3" fill="#fff"/><circle cx="1418" cy="481" r="3" fill="#fff"/><circle cx="1464" cy="485" r="20" fill="#b86ce8" stroke="#2b1650" stroke-width="3" opacity=".92"/><circle cx="1458" cy="481" r="3" fill="#fff"/><circle cx="1470" cy="481" r="3" fill="#fff"/><circle cx="1516" cy="485" r="20" fill="#f6f6f6" stroke="#2b1650" stroke-width="3" opacity=".92"/><circle cx="1510" cy="481" r="3" fill="#fff"/><circle cx="1522" cy="481" r="3" fill="#fff"/><circle cx="1568" cy="485" r="20" fill="#4cb1ff" stroke="#2b1650" stroke-width="3" opacity=".92"/><circle cx="1562" cy="481" r="3" fill="#fff"/><circle cx="1574" cy="481" r="3" fill="#fff"/><circle cx="1620" cy="485" r="20" fill="#ff6b7a" stroke="#2b1650" stroke-width="3" opacity=".92"/><circle cx="1614" cy="481" r="3" fill="#fff"/><circle cx="1626" cy="481" r="3" fill="#fff"/><circle cx="1672" cy="485" r="20" fill="#74d756" stroke="#2b1650" stroke-width="3" opacity=".92"/><circle cx="1666" cy="481" r="3" fill="#fff"/><circle cx="1678" cy="481" r="3" fill="#fff"/><circle cx="1724" cy="485" r="20" fill="#ffd24a" stroke="#2b1650" stroke-width="3" opacity=".92"/><circle cx="1718" cy="481" r="3" fill="#fff"/><circle cx="1730" cy="481" r="3" fill="#fff"/><circle cx="1776" cy="485" r="20" fill="#b86ce8" stroke="#2b1650" stroke-width="3" opacity=".92"/><circle cx="1770" cy="481" r="3" fill="#fff"/><circle cx="1782" cy="481" r="3" fill="#fff"/><circle cx="1828" cy="485" r="20" fill="#f6f6f6" stroke="#2b1650" stroke-width="3" opacity=".92"/><circle cx="1822" cy="481" r="3" fill="#fff"/><circle cx="1834" cy="481" r="3" fill="#fff"/><circle cx="60" cy="540" r="20" fill="#74d756" stroke="#2b1650" stroke-width="3" opacity=".92"/><circle cx="54" cy="536" r="3" fill="#fff"/><circle cx="66" cy="536" r="3" fill="#fff"/><circle cx="112" cy="540" r="20" fill="#ffd24a" stroke="#2b1650" stroke-width="3" opacity=".92"/><circle cx="106" cy="536" r="3" fill="#fff"/><circle cx="118" cy="536" r="3" fill="#fff"/><circle cx="164" cy="540" r="20" fill="#b86ce8" stroke="#2b1650" stroke-width="3" opacity=".92"/><circle cx="158" cy="536" r="3" fill="#fff"/><circle cx="170" cy="536" r="3" fill="#fff"/><circle cx="216" cy="540" r="20" fill="#f6f6f6" stroke="#2b1650" stroke-width="3" opacity=".92"/><circle cx="210" cy="536" r="3" fill="#fff"/><circle cx="222" cy="536" r="3" fill="#fff"/><circle cx="268" cy="540" r="20" fill="#4cb1ff" stroke="#2b1650" stroke-width="3" opacity=".92"/><circle cx="262" cy="536" r="3" fill="#fff"/><circle cx="274" cy="536" r="3" fill="#fff"/><circle cx="320" cy="540" r="20" fill="#ff6b7a" stroke="#2b1650" stroke-width="3" opacity=".92"/><circle cx="314" cy="536" r="3" fill="#fff"/><circle cx="326" cy="536" r="3" fill="#fff"/><circle cx="372" cy="540" r="20" fill="#74d756" stroke="#2b1650" stroke-width="3" opacity=".92"/><circle cx="366" cy="536" r="3" fill="#fff"/><circle cx="378" cy="536" r="3" fill="#fff"/><circle cx="424" cy="540" r="20" fill="#ffd24a" stroke="#2b1650" stroke-width="3" opacity=".92"/><circle cx="418" cy="536" r="3" fill="#fff"/><circle cx="430" cy="536" r="3" fill="#fff"/><circle cx="476" cy="540" r="20" fill="#b86ce8" stroke="#2b1650" stroke-width="3" opacity=".92"/><circle cx="470" cy="536" r="3" fill="#fff"/><circle cx="482" cy="536" r="3" fill="#fff"/><circle cx="528" cy="540" r="20" fill="#f6f6f6" stroke="#2b1650" stroke-width="3" opacity=".92"/><circle cx="522" cy="536" r="3" fill="#fff"/><circle cx="534" cy="536" r="3" fill="#fff"/><circle cx="580" cy="540" r="20" fill="#4cb1ff" stroke="#2b1650" stroke-width="3" opacity=".92"/><circle cx="574" cy="536" r="3" fill="#fff"/><circle cx="586" cy="536" r="3" fill="#fff"/><circle cx="632" cy="540" r="20" fill="#ff6b7a" stroke="#2b1650" stroke-width="3" opacity=".92"/><circle cx="626" cy="536" r="3" fill="#fff"/><circle cx="638" cy="536" r="3" fill="#fff"/><circle cx="684" cy="540" r="20" fill="#74d756" stroke="#2b1650" stroke-width="3" opacity=".92"/><circle cx="678" cy="536" r="3" fill="#fff"/><circle cx="690" cy="536" r="3" fill="#fff"/><circle cx="736" cy="540" r="20" fill="#ffd24a" stroke="#2b1650" stroke-width="3" opacity=".92"/><circle cx="730" cy="536" r="3" fill="#fff"/><circle cx="742" cy="536" r="3" fill="#fff"/><circle cx="788" cy="540" r="20" fill="#b86ce8" stroke="#2b1650" stroke-width="3" opacity=".92"/><circle cx="782" cy="536" r="3" fill="#fff"/><circle cx="794" cy="536" r="3" fill="#fff"/><circle cx="840" cy="540" r="20" fill="#f6f6f6" stroke="#2b1650" stroke-width="3" opacity=".92"/><circle cx="834" cy="536" r="3" fill="#fff"/><circle cx="846" cy="536" r="3" fill="#fff"/><circle cx="892" cy="540" r="20" fill="#4cb1ff" stroke="#2b1650" stroke-width="3" opacity=".92"/><circle cx="886" cy="536" r="3" fill="#fff"/><circle cx="898" cy="536" r="3" fill="#fff"/><circle cx="944" cy="540" r="20" fill="#ff6b7a" stroke="#2b1650" stroke-width="3" opacity=".92"/><circle cx="938" cy="536" r="3" fill="#fff"/><circle cx="950" cy="536" r="3" fill="#fff"/><circle cx="996" cy="540" r="20" fill="#74d756" stroke="#2b1650" stroke-width="3" opacity=".92"/><circle cx="990" cy="536" r="3" fill="#fff"/><circle cx="1002" cy="536" r="3" fill="#fff"/><circle cx="1048" cy="540" r="20" fill="#ffd24a" stroke="#2b1650" stroke-width="3" opacity=".92"/><circle cx="1042" cy="536" r="3" fill="#fff"/><circle cx="1054" cy="536" r="3" fill="#fff"/><circle cx="1100" cy="540" r="20" fill="#b86ce8" stroke="#2b1650" stroke-width="3" opacity=".92"/><circle cx="1094" cy="536" r="3" fill="#fff"/><circle cx="1106" cy="536" r="3" fill="#fff"/><circle cx="1152" cy="540" r="20" fill="#f6f6f6" stroke="#2b1650" stroke-width="3" opacity=".92"/><circle cx="1146" cy="536" r="3" fill="#fff"/><circle cx="1158" cy="536" r="3" fill="#fff"/><circle cx="1204" cy="540" r="20" fill="#4cb1ff" stroke="#2b1650" stroke-width="3" opacity=".92"/><circle cx="1198" cy="536" r="3" fill="#fff"/><circle cx="1210" cy="536" r="3" fill="#fff"/><circle cx="1256" cy="540" r="20" fill="#ff6b7a" stroke="#2b1650" stroke-width="3" opacity=".92"/><circle cx="1250" cy="536" r="3" fill="#fff"/><circle cx="1262" cy="536" r="3" fill="#fff"/><circle cx="1308" cy="540" r="20" fill="#74d756" stroke="#2b1650" stroke-width="3" opacity=".92"/><circle cx="1302" cy="536" r="3" fill="#fff"/><circle cx="1314" cy="536" r="3" fill="#fff"/><circle cx="1360" cy="540" r="20" fill="#ffd24a" stroke="#2b1650" stroke-width="3" opacity=".92"/><circle cx="1354" cy="536" r="3" fill="#fff"/><circle cx="1366" cy="536" r="3" fill="#fff"/><circle cx="1412" cy="540" r="20" fill="#b86ce8" stroke="#2b1650" stroke-width="3" opacity=".92"/><circle cx="1406" cy="536" r="3" fill="#fff"/><circle cx="1418" cy="536" r="3" fill="#fff"/><circle cx="1464" cy="540" r="20" fill="#f6f6f6" stroke="#2b1650" stroke-width="3" opacity=".92"/><circle cx="1458" cy="536" r="3" fill="#fff"/><circle cx="1470" cy="536" r="3" fill="#fff"/><circle cx="1516" cy="540" r="20" fill="#4cb1ff" stroke="#2b1650" stroke-width="3" opacity=".92"/><circle cx="1510" cy="536" r="3" fill="#fff"/><circle cx="1522" cy="536" r="3" fill="#fff"/><circle cx="1568" cy="540" r="20" fill="#ff6b7a" stroke="#2b1650" stroke-width="3" opacity=".92"/><circle cx="1562" cy="536" r="3" fill="#fff"/><circle cx="1574" cy="536" r="3" fill="#fff"/><circle cx="1620" cy="540" r="20" fill="#74d756" stroke="#2b1650" stroke-width="3" opacity=".92"/><circle cx="1614" cy="536" r="3" fill="#fff"/><circle cx="1626" cy="536" r="3" fill="#fff"/><circle cx="1672" cy="540" r="20" fill="#ffd24a" stroke="#2b1650" stroke-width="3" opacity=".92"/><circle cx="1666" cy="536" r="3" fill="#fff"/><circle cx="1678" cy="536" r="3" fill="#fff"/><circle cx="1724" cy="540" r="20" fill="#b86ce8" stroke="#2b1650" stroke-width="3" opacity=".92"/><circle cx="1718" cy="536" r="3" fill="#fff"/><circle cx="1730" cy="536" r="3" fill="#fff"/><circle cx="1776" cy="540" r="20" fill="#f6f6f6" stroke="#2b1650" stroke-width="3" opacity=".92"/><circle cx="1770" cy="536" r="3" fill="#fff"/><circle cx="1782" cy="536" r="3" fill="#fff"/><circle cx="1828" cy="540" r="20" fill="#4cb1ff" stroke="#2b1650" stroke-width="3" opacity=".92"/><circle cx="1822" cy="536" r="3" fill="#fff"/><circle cx="1834" cy="536" r="3" fill="#fff"/><circle cx="60" cy="595" r="20" fill="#ffd24a" stroke="#2b1650" stroke-width="3" opacity=".92"/><circle cx="54" cy="591" r="3" fill="#fff"/><circle cx="66" cy="591" r="3" fill="#fff"/><circle cx="112" cy="595" r="20" fill="#b86ce8" stroke="#2b1650" stroke-width="3" opacity=".92"/><circle cx="106" cy="591" r="3" fill="#fff"/><circle cx="118" cy="591" r="3" fill="#fff"/><circle cx="164" cy="595" r="20" fill="#f6f6f6" stroke="#2b1650" stroke-width="3" opacity=".92"/><circle cx="158" cy="591" r="3" fill="#fff"/><circle cx="170" cy="591" r="3" fill="#fff"/><circle cx="216" cy="595" r="20" fill="#4cb1ff" stroke="#2b1650" stroke-width="3" opacity=".92"/><circle cx="210" cy="591" r="3" fill="#fff"/><circle cx="222" cy="591" r="3" fill="#fff"/><circle cx="268" cy="595" r="20" fill="#ff6b7a" stroke="#2b1650" stroke-width="3" opacity=".92"/><circle cx="262" cy="591" r="3" fill="#fff"/><circle cx="274" cy="591" r="3" fill="#fff"/><circle cx="320" cy="595" r="20" fill="#74d756" stroke="#2b1650" stroke-width="3" opacity=".92"/><circle cx="314" cy="591" r="3" fill="#fff"/><circle cx="326" cy="591" r="3" fill="#fff"/><circle cx="372" cy="595" r="20" fill="#ffd24a" stroke="#2b1650" stroke-width="3" opacity=".92"/><circle cx="366" cy="591" r="3" fill="#fff"/><circle cx="378" cy="591" r="3" fill="#fff"/><circle cx="424" cy="595" r="20" fill="#b86ce8" stroke="#2b1650" stroke-width="3" opacity=".92"/><circle cx="418" cy="591" r="3" fill="#fff"/><circle cx="430" cy="591" r="3" fill="#fff"/><circle cx="476" cy="595" r="20" fill="#f6f6f6" stroke="#2b1650" stroke-width="3" opacity=".92"/><circle cx="470" cy="591" r="3" fill="#fff"/><circle cx="482" cy="591" r="3" fill="#fff"/><circle cx="528" cy="595" r="20" fill="#4cb1ff" stroke="#2b1650" stroke-width="3" opacity=".92"/><circle cx="522" cy="591" r="3" fill="#fff"/><circle cx="534" cy="591" r="3" fill="#fff"/><circle cx="580" cy="595" r="20" fill="#ff6b7a" stroke="#2b1650" stroke-width="3" opacity=".92"/><circle cx="574" cy="591" r="3" fill="#fff"/><circle cx="586" cy="591" r="3" fill="#fff"/><circle cx="632" cy="595" r="20" fill="#74d756" stroke="#2b1650" stroke-width="3" opacity=".92"/><circle cx="626" cy="591" r="3" fill="#fff"/><circle cx="638" cy="591" r="3" fill="#fff"/><circle cx="684" cy="595" r="20" fill="#ffd24a" stroke="#2b1650" stroke-width="3" opacity=".92"/><circle cx="678" cy="591" r="3" fill="#fff"/><circle cx="690" cy="591" r="3" fill="#fff"/><circle cx="736" cy="595" r="20" fill="#b86ce8" stroke="#2b1650" stroke-width="3" opacity=".92"/><circle cx="730" cy="591" r="3" fill="#fff"/><circle cx="742" cy="591" r="3" fill="#fff"/><circle cx="788" cy="595" r="20" fill="#f6f6f6" stroke="#2b1650" stroke-width="3" opacity=".92"/><circle cx="782" cy="591" r="3" fill="#fff"/><circle cx="794" cy="591" r="3" fill="#fff"/><circle cx="840" cy="595" r="20" fill="#4cb1ff" stroke="#2b1650" stroke-width="3" opacity=".92"/><circle cx="834" cy="591" r="3" fill="#fff"/><circle cx="846" cy="591" r="3" fill="#fff"/><circle cx="892" cy="595" r="20" fill="#ff6b7a" stroke="#2b1650" stroke-width="3" opacity=".92"/><circle cx="886" cy="591" r="3" fill="#fff"/><circle cx="898" cy="591" r="3" fill="#fff"/><circle cx="944" cy="595" r="20" fill="#74d756" stroke="#2b1650" stroke-width="3" opacity=".92"/><circle cx="938" cy="591" r="3" fill="#fff"/><circle cx="950" cy="591" r="3" fill="#fff"/><circle cx="996" cy="595" r="20" fill="#ffd24a" stroke="#2b1650" stroke-width="3" opacity=".92"/><circle cx="990" cy="591" r="3" fill="#fff"/><circle cx="1002" cy="591" r="3" fill="#fff"/><circle cx="1048" cy="595" r="20" fill="#b86ce8" stroke="#2b1650" stroke-width="3" opacity=".92"/><circle cx="1042" cy="591" r="3" fill="#fff"/><circle cx="1054" cy="591" r="3" fill="#fff"/><circle cx="1100" cy="595" r="20" fill="#f6f6f6" stroke="#2b1650" stroke-width="3" opacity=".92"/><circle cx="1094" cy="591" r="3" fill="#fff"/><circle cx="1106" cy="591" r="3" fill="#fff"/><circle cx="1152" cy="595" r="20" fill="#4cb1ff" stroke="#2b1650" stroke-width="3" opacity=".92"/><circle cx="1146" cy="591" r="3" fill="#fff"/><circle cx="1158" cy="591" r="3" fill="#fff"/><circle cx="1204" cy="595" r="20" fill="#ff6b7a" stroke="#2b1650" stroke-width="3" opacity=".92"/><circle cx="1198" cy="591" r="3" fill="#fff"/><circle cx="1210" cy="591" r="3" fill="#fff"/><circle cx="1256" cy="595" r="20" fill="#74d756" stroke="#2b1650" stroke-width="3" opacity=".92"/><circle cx="1250" cy="591" r="3" fill="#fff"/><circle cx="1262" cy="591" r="3" fill="#fff"/><circle cx="1308" cy="595" r="20" fill="#ffd24a" stroke="#2b1650" stroke-width="3" opacity=".92"/><circle cx="1302" cy="591" r="3" fill="#fff"/><circle cx="1314" cy="591" r="3" fill="#fff"/><circle cx="1360" cy="595" r="20" fill="#b86ce8" stroke="#2b1650" stroke-width="3" opacity=".92"/><circle cx="1354" cy="591" r="3" fill="#fff"/><circle cx="1366" cy="591" r="3" fill="#fff"/><circle cx="1412" cy="595" r="20" fill="#f6f6f6" stroke="#2b1650" stroke-width="3" opacity=".92"/><circle cx="1406" cy="591" r="3" fill="#fff"/><circle cx="1418" cy="591" r="3" fill="#fff"/><circle cx="1464" cy="595" r="20" fill="#4cb1ff" stroke="#2b1650" stroke-width="3" opacity=".92"/><circle cx="1458" cy="591" r="3" fill="#fff"/><circle cx="1470" cy="591" r="3" fill="#fff"/><circle cx="1516" cy="595" r="20" fill="#ff6b7a" stroke="#2b1650" stroke-width="3" opacity=".92"/><circle cx="1510" cy="591" r="3" fill="#fff"/><circle cx="1522" cy="591" r="3" fill="#fff"/><circle cx="1568" cy="595" r="20" fill="#74d756" stroke="#2b1650" stroke-width="3" opacity=".92"/><circle cx="1562" cy="591" r="3" fill="#fff"/><circle cx="1574" cy="591" r="3" fill="#fff"/><circle cx="1620" cy="595" r="20" fill="#ffd24a" stroke="#2b1650" stroke-width="3" opacity=".92"/><circle cx="1614" cy="591" r="3" fill="#fff"/><circle cx="1626" cy="591" r="3" fill="#fff"/><circle cx="1672" cy="595" r="20" fill="#b86ce8" stroke="#2b1650" stroke-width="3" opacity=".92"/><circle cx="1666" cy="591" r="3" fill="#fff"/><circle cx="1678" cy="591" r="3" fill="#fff"/><circle cx="1724" cy="595" r="20" fill="#f6f6f6" stroke="#2b1650" stroke-width="3" opacity=".92"/><circle cx="1718" cy="591" r="3" fill="#fff"/><circle cx="1730" cy="591" r="3" fill="#fff"/><circle cx="1776" cy="595" r="20" fill="#4cb1ff" stroke="#2b1650" stroke-width="3" opacity=".92"/><circle cx="1770" cy="591" r="3" fill="#fff"/><circle cx="1782" cy="591" r="3" fill="#fff"/><circle cx="1828" cy="595" r="20" fill="#ff6b7a" stroke="#2b1650" stroke-width="3" opacity=".92"/><circle cx="1822" cy="591" r="3" fill="#fff"/><circle cx="1834" cy="591" r="3" fill="#fff"/>
<path d="M180 315 l42 12 l-42 12z" fill="#ffe15a" opacity=".9"/><path d="M330 292 l42 12 l-42 12z" fill="#ff75a9" opacity=".9"/><path d="M520 318 l42 12 l-42 12z" fill="#69e262" opacity=".9"/><path d="M1200 310 l42 12 l-42 12z" fill="#ffe15a" opacity=".9"/><path d="M1350 288 l42 12 l-42 12z" fill="#ff75a9" opacity=".9"/><path d="M1520 320 l42 12 l-42 12z" fill="#69e262" opacity=".9"/>
<path d="M0 760 C520 650 1330 650 1920 760 V1280 H0Z" fill="#5bd83f"/>
<path d="M0 940 C500 820 1430 820 1920 940" fill="none" stroke="#a8ff7d" stroke-width="90" opacity=".35"/>
<ellipse cx="960" cy="1065" rx="760" ry="170" fill="#4bc536" opacity=".65"/>

</svg>