<svg xmlns="http://www.w3.org/2000/svg" viewBox="0 0 156 144" fill="none">
  <defs>
    <radialGradient id="burstCore" cx="0" cy="0" r="1" gradientUnits="userSpaceOnUse" gradientTransform="translate(78 60) rotate(90) scale(70 74)">
      <stop offset="0" stop-color="#FFFCE5"/>
      <stop offset=".34" stop-color="#FFE97A"/>
      <stop offset=".68" stop-color="#FFD13A"/>
      <stop offset="1" stop-color="#FF8D1D"/>
    </radialGradient>
    <linearGradient id="textFill" x1="78" y1="47" x2="78" y2="106" gradientUnits="userSpaceOnUse">
      <stop offset="0" stop-color="#FFFFFF"/>
      <stop offset=".45" stop-color="#FFF7BE"/>
      <stop offset="1" stop-color="#FFB43D"/>
    </linearGradient>
    <linearGradient id="gloss" x1="78" y1="16" x2="78" y2="66" gradientUnits="userSpaceOnUse">
      <stop stop-color="#FFFFFF" stop-opacity=".95"/>
      <stop offset=".62" stop-color="#FFFFFF" stop-opacity="0"/>
    </linearGradient>
  </defs>
  <path d="M78 5 90 29 117 12 111 39 145 35 123 56 151 74 119 77 130 106 100 96 93 135 72 107 51 135 44 96 14 106 25 77-7 74 21 56-1 35 33 39 27 12 54 29 66 5Z" fill="#4F1A13" opacity=".28" transform="translate(3 5)"/>
  <path d="M78 5 90 29 117 12 111 39 145 35 123 56 151 74 119 77 130 106 100 96 93 135 72 107 51 135 44 96 14 106 25 77-7 74 21 56-1 35 33 39 27 12 54 29 66 5Z" fill="url(#burstCore)" stroke="#1A0A2C" stroke-linejoin="round" stroke-width="5"/>
  <path d="M50 22c9-10 26-17 47-17 17 0 33 4 44 11" stroke="#FFF7C8" stroke-linecap="round" stroke-width="8"/>
  <ellipse cx="82" cy="34" rx="34" ry="13" fill="url(#gloss)"/>
  <ellipse cx="58" cy="27" rx="14" ry="5" fill="#FFFFFF" opacity=".92"/>
  <ellipse cx="103" cy="44" rx="7" ry="3" fill="#FFFFFF" opacity=".76"/>
  <g transform="rotate(-7 78 76)">
    <text x="78" y="92" text-anchor="middle" font-family="'M PLUS Rounded 1c','Hiragino Maru Gothic ProN',ui-rounded,system-ui,sans-serif" font-size="56" font-style="italic" font-weight="900" fill="url(#textFill)" paint-order="stroke fill" stroke="#1A0A2C" stroke-linejoin="round" stroke-width="8">VS</text>
  </g>
</svg>
